<mxfile host="app.diagrams.net" agent="Mozilla/5.0 (Windows NT 10.0; Win64; x64) AppleWebKit/537.36 (KHTML, like Gecko) Chrome/139.0.0.0 Safari/537.36" version="28.1.0">
  <diagram name="페이지-1" id="cl7ALC0UtQnw6X_XRYts">
    <mxGraphModel dx="1310" dy="1215" grid="1" gridSize="10" guides="1" tooltips="1" connect="1" arrows="1" fold="1" page="1" pageScale="1" pageWidth="827" pageHeight="1169" math="0" shadow="0">
      <root>
        <mxCell id="0" />
        <mxCell id="1" parent="0" />
        <mxCell id="Wo9eE9MgHVkq7TeOtgUr-1" value="Start" style="rounded=1;whiteSpace=wrap;html=1;" vertex="1" parent="1">
          <mxGeometry x="342.5" y="110" width="90" height="30" as="geometry" />
        </mxCell>
        <mxCell id="Wo9eE9MgHVkq7TeOtgUr-9" value="" style="edgeStyle=orthogonalEdgeStyle;rounded=0;orthogonalLoop=1;jettySize=auto;html=1;" edge="1" parent="1" source="Wo9eE9MgHVkq7TeOtgUr-2" target="Wo9eE9MgHVkq7TeOtgUr-8">
          <mxGeometry relative="1" as="geometry" />
        </mxCell>
        <mxCell id="Wo9eE9MgHVkq7TeOtgUr-2" value="거리측정&amp;nbsp;" style="rounded=0;whiteSpace=wrap;html=1;" vertex="1" parent="1">
          <mxGeometry x="345" y="170" width="85" height="40" as="geometry" />
        </mxCell>
        <mxCell id="Wo9eE9MgHVkq7TeOtgUr-5" value="" style="endArrow=classic;html=1;rounded=0;entryX=0.5;entryY=0;entryDx=0;entryDy=0;exitX=0.5;exitY=1;exitDx=0;exitDy=0;" edge="1" parent="1" source="Wo9eE9MgHVkq7TeOtgUr-1" target="Wo9eE9MgHVkq7TeOtgUr-2">
          <mxGeometry width="50" height="50" relative="1" as="geometry">
            <mxPoint x="404.5" y="140" as="sourcePoint" />
            <mxPoint x="405" y="180" as="targetPoint" />
            <Array as="points" />
          </mxGeometry>
        </mxCell>
        <mxCell id="Wo9eE9MgHVkq7TeOtgUr-12" style="edgeStyle=orthogonalEdgeStyle;rounded=0;orthogonalLoop=1;jettySize=auto;html=1;exitX=0.5;exitY=1;exitDx=0;exitDy=0;entryX=0.5;entryY=0;entryDx=0;entryDy=0;" edge="1" parent="1" source="Wo9eE9MgHVkq7TeOtgUr-8" target="Wo9eE9MgHVkq7TeOtgUr-10">
          <mxGeometry relative="1" as="geometry" />
        </mxCell>
        <mxCell id="Wo9eE9MgHVkq7TeOtgUr-8" value="색 표현" style="rounded=0;whiteSpace=wrap;html=1;" vertex="1" parent="1">
          <mxGeometry x="345" y="240" width="85" height="40" as="geometry" />
        </mxCell>
        <mxCell id="Wo9eE9MgHVkq7TeOtgUr-13" style="edgeStyle=orthogonalEdgeStyle;rounded=0;orthogonalLoop=1;jettySize=auto;html=1;exitX=1;exitY=0.5;exitDx=0;exitDy=0;" edge="1" parent="1" source="Wo9eE9MgHVkq7TeOtgUr-10">
          <mxGeometry relative="1" as="geometry">
            <mxPoint x="520" y="190" as="targetPoint" />
          </mxGeometry>
        </mxCell>
        <mxCell id="Wo9eE9MgHVkq7TeOtgUr-16" style="edgeStyle=orthogonalEdgeStyle;rounded=0;orthogonalLoop=1;jettySize=auto;html=1;" edge="1" parent="1" source="Wo9eE9MgHVkq7TeOtgUr-10">
          <mxGeometry relative="1" as="geometry">
            <mxPoint x="390" y="430" as="targetPoint" />
          </mxGeometry>
        </mxCell>
        <mxCell id="Wo9eE9MgHVkq7TeOtgUr-10" value="버튼 누름" style="rhombus;whiteSpace=wrap;html=1;" vertex="1" parent="1">
          <mxGeometry x="330" y="310" width="120" height="80" as="geometry" />
        </mxCell>
        <mxCell id="Wo9eE9MgHVkq7TeOtgUr-14" value="" style="endArrow=classic;html=1;rounded=0;entryX=1;entryY=0.5;entryDx=0;entryDy=0;" edge="1" parent="1" target="Wo9eE9MgHVkq7TeOtgUr-2">
          <mxGeometry width="50" height="50" relative="1" as="geometry">
            <mxPoint x="520" y="190" as="sourcePoint" />
            <mxPoint x="450" y="190" as="targetPoint" />
          </mxGeometry>
        </mxCell>
        <mxCell id="Wo9eE9MgHVkq7TeOtgUr-15" value="누르지 않음" style="text;html=1;align=center;verticalAlign=middle;whiteSpace=wrap;rounded=0;" vertex="1" parent="1">
          <mxGeometry x="450" y="330" width="70" height="30" as="geometry" />
        </mxCell>
        <mxCell id="Wo9eE9MgHVkq7TeOtgUr-17" value="누름" style="text;html=1;align=center;verticalAlign=middle;whiteSpace=wrap;rounded=0;" vertex="1" parent="1">
          <mxGeometry x="372.5" y="390" width="60" height="30" as="geometry" />
        </mxCell>
        <mxCell id="Wo9eE9MgHVkq7TeOtgUr-19" style="edgeStyle=orthogonalEdgeStyle;rounded=0;orthogonalLoop=1;jettySize=auto;html=1;exitX=0.5;exitY=1;exitDx=0;exitDy=0;" edge="1" parent="1" source="Wo9eE9MgHVkq7TeOtgUr-18">
          <mxGeometry relative="1" as="geometry">
            <mxPoint x="390" y="550" as="targetPoint" />
          </mxGeometry>
        </mxCell>
        <mxCell id="Wo9eE9MgHVkq7TeOtgUr-20" style="edgeStyle=orthogonalEdgeStyle;rounded=0;orthogonalLoop=1;jettySize=auto;html=1;" edge="1" parent="1" source="Wo9eE9MgHVkq7TeOtgUr-18">
          <mxGeometry relative="1" as="geometry">
            <mxPoint x="530" y="540" as="targetPoint" />
          </mxGeometry>
        </mxCell>
        <mxCell id="Wo9eE9MgHVkq7TeOtgUr-18" value="Count == True?" style="rhombus;whiteSpace=wrap;html=1;" vertex="1" parent="1">
          <mxGeometry x="330" y="430" width="120" height="80" as="geometry" />
        </mxCell>
        <mxCell id="Wo9eE9MgHVkq7TeOtgUr-38" style="edgeStyle=orthogonalEdgeStyle;rounded=0;orthogonalLoop=1;jettySize=auto;html=1;" edge="1" parent="1" source="Wo9eE9MgHVkq7TeOtgUr-22">
          <mxGeometry relative="1" as="geometry">
            <mxPoint x="390" y="860" as="targetPoint" />
          </mxGeometry>
        </mxCell>
        <mxCell id="Wo9eE9MgHVkq7TeOtgUr-22" value="처음 거리 확인" style="rounded=0;whiteSpace=wrap;html=1;" vertex="1" parent="1">
          <mxGeometry x="347.5" y="550" width="85" height="40" as="geometry" />
        </mxCell>
        <mxCell id="Wo9eE9MgHVkq7TeOtgUr-23" value="예" style="text;html=1;align=center;verticalAlign=middle;whiteSpace=wrap;rounded=0;" vertex="1" parent="1">
          <mxGeometry x="372.5" y="510" width="60" height="30" as="geometry" />
        </mxCell>
        <mxCell id="Wo9eE9MgHVkq7TeOtgUr-24" value="아니요" style="text;html=1;align=center;verticalAlign=middle;whiteSpace=wrap;rounded=0;" vertex="1" parent="1">
          <mxGeometry x="470" y="480" width="60" height="30" as="geometry" />
        </mxCell>
        <mxCell id="Wo9eE9MgHVkq7TeOtgUr-28" value="" style="edgeStyle=orthogonalEdgeStyle;rounded=0;orthogonalLoop=1;jettySize=auto;html=1;" edge="1" parent="1" source="Wo9eE9MgHVkq7TeOtgUr-26" target="Wo9eE9MgHVkq7TeOtgUr-29">
          <mxGeometry relative="1" as="geometry">
            <mxPoint x="532.5" y="620" as="targetPoint" />
          </mxGeometry>
        </mxCell>
        <mxCell id="Wo9eE9MgHVkq7TeOtgUr-26" value="나중 거리 확인" style="rounded=0;whiteSpace=wrap;html=1;" vertex="1" parent="1">
          <mxGeometry x="490" y="540" width="85" height="40" as="geometry" />
        </mxCell>
        <mxCell id="Wo9eE9MgHVkq7TeOtgUr-31" style="edgeStyle=orthogonalEdgeStyle;rounded=0;orthogonalLoop=1;jettySize=auto;html=1;" edge="1" parent="1" source="Wo9eE9MgHVkq7TeOtgUr-29">
          <mxGeometry relative="1" as="geometry">
            <mxPoint x="532.5" y="750" as="targetPoint" />
          </mxGeometry>
        </mxCell>
        <mxCell id="Wo9eE9MgHVkq7TeOtgUr-32" style="edgeStyle=orthogonalEdgeStyle;rounded=0;orthogonalLoop=1;jettySize=auto;html=1;" edge="1" parent="1" source="Wo9eE9MgHVkq7TeOtgUr-29">
          <mxGeometry relative="1" as="geometry">
            <mxPoint x="660" y="750" as="targetPoint" />
          </mxGeometry>
        </mxCell>
        <mxCell id="Wo9eE9MgHVkq7TeOtgUr-29" value="처음거리 - 나중거리 &amp;lt; 0" style="rhombus;whiteSpace=wrap;html=1;" vertex="1" parent="1">
          <mxGeometry x="463.75" y="620" width="137.5" height="80" as="geometry" />
        </mxCell>
        <mxCell id="Wo9eE9MgHVkq7TeOtgUr-30" value="예" style="text;html=1;align=center;verticalAlign=middle;whiteSpace=wrap;rounded=0;" vertex="1" parent="1">
          <mxGeometry x="520" y="700" width="60" height="30" as="geometry" />
        </mxCell>
        <mxCell id="Wo9eE9MgHVkq7TeOtgUr-33" value="아니요" style="text;html=1;align=center;verticalAlign=middle;whiteSpace=wrap;rounded=0;" vertex="1" parent="1">
          <mxGeometry x="601.25" y="670" width="60" height="30" as="geometry" />
        </mxCell>
        <mxCell id="Wo9eE9MgHVkq7TeOtgUr-40" style="edgeStyle=orthogonalEdgeStyle;rounded=0;orthogonalLoop=1;jettySize=auto;html=1;" edge="1" parent="1" source="Wo9eE9MgHVkq7TeOtgUr-36">
          <mxGeometry relative="1" as="geometry">
            <mxPoint x="660" y="860" as="targetPoint" />
          </mxGeometry>
        </mxCell>
        <mxCell id="Wo9eE9MgHVkq7TeOtgUr-36" value="7segment&amp;nbsp;&lt;div&gt;거리&amp;nbsp;&lt;span style=&quot;background-color: transparent; color: light-dark(rgb(0, 0, 0), rgb(255, 255, 255));&quot;&gt;표현&lt;/span&gt;&lt;/div&gt;" style="rounded=0;whiteSpace=wrap;html=1;" vertex="1" parent="1">
          <mxGeometry x="610" y="750" width="100" height="40" as="geometry" />
        </mxCell>
        <mxCell id="Wo9eE9MgHVkq7TeOtgUr-39" style="edgeStyle=orthogonalEdgeStyle;rounded=0;orthogonalLoop=1;jettySize=auto;html=1;" edge="1" parent="1" source="Wo9eE9MgHVkq7TeOtgUr-37">
          <mxGeometry relative="1" as="geometry">
            <mxPoint x="533" y="920" as="targetPoint" />
          </mxGeometry>
        </mxCell>
        <mxCell id="Wo9eE9MgHVkq7TeOtgUr-37" value="처음거리 = 9" style="rounded=0;whiteSpace=wrap;html=1;" vertex="1" parent="1">
          <mxGeometry x="482.5" y="750" width="100" height="40" as="geometry" />
        </mxCell>
        <mxCell id="Wo9eE9MgHVkq7TeOtgUr-41" value="" style="endArrow=classic;html=1;rounded=0;" edge="1" parent="1">
          <mxGeometry width="50" height="50" relative="1" as="geometry">
            <mxPoint x="389" y="860" as="sourcePoint" />
            <mxPoint x="540" y="860" as="targetPoint" />
          </mxGeometry>
        </mxCell>
        <mxCell id="Wo9eE9MgHVkq7TeOtgUr-42" value="" style="endArrow=classic;html=1;rounded=0;" edge="1" parent="1">
          <mxGeometry width="50" height="50" relative="1" as="geometry">
            <mxPoint x="660" y="860" as="sourcePoint" />
            <mxPoint x="530" y="860" as="targetPoint" />
          </mxGeometry>
        </mxCell>
        <mxCell id="Wo9eE9MgHVkq7TeOtgUr-43" value="" style="endArrow=classic;html=1;rounded=0;" edge="1" parent="1">
          <mxGeometry width="50" height="50" relative="1" as="geometry">
            <mxPoint x="530" y="920" as="sourcePoint" />
            <mxPoint x="260" y="920" as="targetPoint" />
          </mxGeometry>
        </mxCell>
        <mxCell id="Wo9eE9MgHVkq7TeOtgUr-45" value="" style="endArrow=classic;html=1;rounded=0;" edge="1" parent="1">
          <mxGeometry width="50" height="50" relative="1" as="geometry">
            <mxPoint x="270" y="920" as="sourcePoint" />
            <mxPoint x="270" y="190" as="targetPoint" />
          </mxGeometry>
        </mxCell>
        <mxCell id="Wo9eE9MgHVkq7TeOtgUr-46" value="" style="endArrow=classic;html=1;rounded=0;" edge="1" parent="1">
          <mxGeometry width="50" height="50" relative="1" as="geometry">
            <mxPoint x="270" y="190" as="sourcePoint" />
            <mxPoint x="340" y="190" as="targetPoint" />
          </mxGeometry>
        </mxCell>
      </root>
    </mxGraphModel>
  </diagram>
</mxfile>
